# xmcd
#
# Track frame offsets: 
#        150
#        14487
#        30312
#        50062
#        65122
#        76550
#        91887
#        108600
#        122075
#        134862
#
# Disc length: 2036 seconds
#
# Revision: 0
# Processed by: cddbd v1.5.2PL0 Copyright (c) Steve Scherf et al.
# Submitted via: ExactAudioCopy v0.95b4
#
DISCID=8707f20a
DTITLE=Various Artist - Country Classics Vol 1, 1976-1992
DYEAR=1996
DGENRE=Country
TTITLE0=John Anderson/When Your Yellow Brick Road Turns Blue
TTITLE1=Gerorge Jones/I Don't Need Your Rockin' Chair
TTITLE2=James House/Hard Times For An Honest Man
TTITLE3=McBride and The Ride/Sacred Ground
TTITLE4=Patty Loveless/Timber, I'm Falling In Love
TTITLE5=Lionel Cartwright/I Watched In All (On My Radio)
TTITLE6=Mark Collie/Even The Man In The Moon Is Cryin'
TTITLE7=Tanya Tucker/Here's Some Love
TTITLE8=Conway Twitty/Tight Fittin Jeans
TTITLE9=Oak Ridge Boys/It Takes A Little Rain
EXTD=
EXTT0=
EXTT1=
EXTT2=
EXTT3=
EXTT4=
EXTT5=
EXTT6=
EXTT7=
EXTT8=
EXTT9=
PLAYORDER=
